<svg width="185" height="32" viewBox="0 0 185 32" fill="none" xmlns="http://www.w3.org/2000/svg">
<path d="M8.72778 3.57503C9.32666 1.91246 9.62614 1.08118 10.3028 0.607973C10.9795 0.134766 11.8687 0.134766 13.6473 0.134766H15.9392L7.33192 24.3441C6.7375 26.016 6.44029 26.852 5.76218 27.3282C5.08408 27.8046 4.1911 27.8308 2.40518 27.8308C0.619263 27.8308 0 27.8308 0 27.8308L8.72778 3.57503Z" fill="white"/>
<path d="M29.1509 3.44027C28.552 1.77769 28.2526 0.946414 27.5759 0.473206C26.8992 -4.58222e-08 26.0099 0 24.2313 0H21.9395L30.5468 24.2093C31.1411 25.8812 31.4384 26.7172 32.1165 27.1935C32.7946 27.6697 33.6875 27.8307 35.4734 27.8307H37.8786L29.1509 3.44027Z" fill="white"/>
<path d="M17.8942 16.7878L14.4366 27.4134C13.7317 29.5794 13.3793 30.6623 12.5202 31.2831C11.6611 31.9037 10.5148 31.9037 8.222 31.9037H6.66406L17.5374 0.134766H20.1265L31.2588 31.9037H29.4542C27.1558 31.9037 26.0066 31.9037 25.1466 31.2807C24.2865 30.6576 23.936 29.5711 23.2347 27.3982L19.7996 16.7878H17.8942Z" fill="white"/>
<path d="M91.1152 4.20801H87.4697V12.0024H85.7305V15.5637H87.4697V27.7695H91.1152V15.5637H92.8856V12.0024H91.1152V4.20801Z" fill="white"/>
<path fill-rule="evenodd" clip-rule="evenodd" d="M118.039 4.20801H114.424V27.7695H122.41C122.41 27.7695 122.429 27.7692 123.985 27.7692C125.542 27.7692 127.476 26.8506 128.58 25.7548C129.686 24.6577 130.244 23.1073 130.244 21.1555V18.4286V18.4244C130.103 16.3103 129.491 14.7076 128.389 13.6339C127.285 12.5591 125.711 12.0329 123.686 12.0329H118.039V4.20801ZM123.686 15.5942H118.039V24.0552H123.554C124.82 23.9189 125.583 23.5448 126.031 23.0608C126.479 22.5766 126.63 21.9626 126.63 21.3084V18.592C126.507 17.3314 126.113 16.5901 125.594 16.1609C125.072 15.7296 124.401 15.5942 123.686 15.5942Z" fill="white"/>
<path fill-rule="evenodd" clip-rule="evenodd" d="M101.513 11.8799C99.4056 11.8799 97.7989 12.508 96.7207 13.6451C95.6435 14.7808 95.1094 16.407 95.1094 18.3716V21.4307C95.1094 23.3657 95.6518 24.9541 96.7342 26.0592C97.8162 27.1649 99.4229 27.7694 101.513 27.7694H105.147C107.207 27.7694 108.826 27.1807 109.932 26.1114C111.037 25.0419 111.613 23.5066 111.613 21.6448V18.3716C111.613 16.407 111.079 14.7807 109.997 13.6449C108.915 12.5078 107.301 11.8799 105.178 11.8799H101.513ZM98.5686 18.4327C98.5686 17.7279 98.7137 16.9888 99.1577 16.4282C99.5978 15.8733 100.347 15.4718 101.606 15.4718H104.775C106.033 15.4718 106.783 15.8733 107.223 16.4282C107.667 16.9888 107.812 17.7279 107.812 18.4327V21.2471C107.812 21.9519 107.667 22.6829 107.223 23.2358C106.784 23.7829 106.034 24.1775 104.775 24.1775H101.606C100.347 24.1775 99.5969 23.7829 99.1577 23.2358C98.7137 22.6829 98.5686 21.9519 98.5686 21.2471V18.4327Z" fill="white"/>
<path d="M177.915 11.9404H169.275V27.7688H172.89V15.5324H177.915C178.632 15.5324 179.366 15.6683 179.92 16.1011C180.467 16.5294 180.86 17.2673 180.86 18.5239V27.7688H184.506V18.371C184.506 16.2501 183.876 14.6371 182.726 13.5551C181.577 12.4742 179.926 11.9404 177.915 11.9404Z" fill="white"/>
<path d="M71.5362 12.002H67.8906V21.2162C67.8906 23.3216 68.5121 24.9197 69.6591 25.9904C70.8048 27.0598 72.4562 27.7691 74.4809 27.7691H83.3385V12.002H79.7239V24.0243H74.4809C73.7639 24.0243 73.0298 23.8884 72.4768 23.4555C71.9296 23.0272 71.5362 22.2893 71.5362 21.0327V12.002Z" fill="white"/>
<path fill-rule="evenodd" clip-rule="evenodd" d="M138.616 12.0322C136.562 12.0322 134.917 12.5341 133.786 13.5812C132.654 14.6298 132.057 16.2058 132.057 18.3098V21.2466C132.057 23.1975 132.615 24.823 133.699 25.9618C134.785 27.1016 136.383 27.7688 138.43 27.7688H148.001V12.0322H138.616ZM135.484 18.6157C135.484 17.2959 135.879 16.5444 136.436 16.1172C136.999 15.6848 137.755 15.563 138.523 15.563H144.511V24.2075H138.584C137.308 24.2075 136.542 23.8197 136.093 23.2688C135.638 22.7125 135.484 21.9668 135.484 21.2159V18.6157Z" fill="white"/>
<path d="M150.834 4.20801H154.449V11.9718H160.126C162.137 11.9718 163.781 12.5134 164.922 13.5984C166.064 14.6842 166.686 16.297 166.686 18.4023V27.7695H163.04V18.5246C163.04 17.283 162.655 16.5445 162.114 16.1125C161.569 15.6762 160.842 15.5331 160.126 15.5331H154.449V27.7695H150.834V4.20801Z" fill="white"/>
<path fill-rule="evenodd" clip-rule="evenodd" d="M51.4032 24.9912C50.9342 26.3023 50.6996 26.9579 50.1645 27.3314C49.6293 27.7049 48.9246 27.8311 47.5153 27.8311H45.6172L54.1339 4.20801H58.0647L66.5813 27.8311H64.6834C63.2739 27.8311 62.5692 27.7049 62.0341 27.3314C61.499 26.9579 61.2644 26.3023 60.7954 24.9912L59.3749 21.155H52.8236L51.4032 24.9912ZM58.5888 17.3034L56.0993 10.0915L53.6098 17.3034H58.5888Z" fill="white"/>
</svg>
